<svg xmlns="http://www.w3.org/2000/svg" xml:space="preserve" style="fill-rule:evenodd;clip-rule:evenodd;stroke-linejoin:round;stroke-miterlimit:2" viewBox="0 0 449 142"><path d="m0 114.018 13.123-57.009Q18 35.999 27.751 23.521 44.962 1.434 66.259 1.434q21.441 0 28.325 22.087l-12.907 5.593h-.717Q76.8 13.625 63.463 13.625T38.795 29.114q-5.809 7.96-9.753 21.8h40.731l-.143.717-8.032 11.473H26.102l-10.254 44.46-15.131 6.454zM107.42 114.018q-14.987 0-14.987-10.757 0-2.08.574-4.589l21.297-92.218L129.435 0h.717l-22.803 98.672q-.717 3.155 2.725 3.155h5.521l-.143.717zM208.889 29.401l-16.565 71.709q-3.37 14.7-10.685 24.309-12.62 16.566-28.898 16.565h-17.282l.143-.717 8.103-11.473h11.832q8.964 0 15.059-9.466 4.16-6.454 6.095-14.916-8.677 7.171-17.281 7.171-16.063 0-21.155-16.564-1.362-4.446-1.362-10.04 0-6.31 1.793-14.27 3.871-17.354 20.437-27.249H141.41l.144-.717 8.031-11.474h33.56l-.143.717-8.032 11.474q-10.038 6.023-14.557 11.76-5.378 6.883-7.386 15.489-2.007 8.677-2.007 14.199 0 2.94.573 5.019 2.582 9.466 10.757 9.466 8.102 0 15.059-9.466 4.302-5.88 7.386-19.218l8.246-35.854 15.131-6.454zM274.001 114.018l13.123-57.009q4.804-20.868 14.628-33.488Q318.963 1.434 340.26 1.434q12.047 0 18.644 6.597 5.45 5.45 5.45 13.984 0 3.37-.86 7.314-2.654 12.262-15.633 20.509 3.299 1.506 5.952 4.518 5.952 6.669 5.952 15.847 0 3.657-.932 7.817-3.442 14.341-14.557 23.305-12.191 9.825-29.329 9.824h-13.84l.143-.717 8.032-11.473h8.461q10.47 0 18.716-7.028 5.881-5.02 7.888-13.481.789-3.299.789-6.167 0-4.662-2.151-8.032-4.66-7.314-15.489-7.314h-13.84l.143-.717 8.032-11.473h8.461q7.243 0 12.621-4.662 4.876-4.23 6.454-11.114.502-2.223.502-4.231 0-3.873-2.079-6.813-3.156-4.302-10.327-4.302-13.337 0-24.668 15.489-7.098 9.68-11.33 27.895l-11.617 50.555-15.13 6.454zM448.397 29.401l-16.564 71.709q-3.37 14.7-10.685 24.309-12.621 16.566-28.899 16.565h-17.282l.144-.717 8.103-11.473h11.832q8.964 0 15.059-9.466 4.159-6.454 6.095-14.916-8.676 7.171-17.282 7.171-16.063 0-21.154-16.564-1.363-4.446-1.363-10.04 0-6.31 1.793-14.27 3.873-17.354 20.437-27.249h-17.712l.144-.717 8.031-11.474h33.56l-.144.717-8.031 11.474q-10.04 6.023-14.557 11.76-5.377 6.883-7.386 15.489-2.008 8.677-2.008 14.199 0 2.94.574 5.019 2.581 9.466 10.756 9.466 8.103 0 15.059-9.466 4.304-5.88 7.386-19.218l8.247-35.854 15.13-6.454z" style="fill:#fff;fill-rule:nonzero"/><circle cx="240.446" cy="70.992" r="12.001" style="fill:#fff"/></svg>